<svg xmlns="http://www.w3.org/2000/svg" viewBox="0 0 64 64" role="img" aria-label="SC2 AI Coach favicon">
  <defs>
    <linearGradient id="bg" x1="0" y1="0" x2="1" y2="1">
      <stop offset="0%" stop-color="#08111f" />
      <stop offset="100%" stop-color="#132b45" />
    </linearGradient>
    <linearGradient id="frame" x1="0" y1="0" x2="1" y2="1">
      <stop offset="0%" stop-color="#7cf7ff" />
      <stop offset="100%" stop-color="#35c7ff" />
    </linearGradient>
    <linearGradient id="accent" x1="0" y1="0" x2="1" y2="1">
      <stop offset="0%" stop-color="#ffe27a" />
      <stop offset="100%" stop-color="#ff9b47" />
    </linearGradient>
  </defs>
  <rect width="64" height="64" rx="14" fill="url(#bg)" />
  <path
    d="M32 7 50 17v15c0 12.3-8 20.7-18 25C22 52.7 14 44.3 14 32V17L32 7Z"
    fill="none"
    stroke="url(#frame)"
    stroke-width="3"
    stroke-linejoin="round"
  />
  <circle cx="32" cy="30" r="10" fill="none" stroke="#163850" stroke-width="6" opacity=".8" />
  <circle cx="32" cy="30" r="10" fill="none" stroke="#6ef0b2" stroke-width="2.5" />
  <path d="M32 17v5M32 38v5M19 30h5M40 30h5" stroke="#6ef0b2" stroke-width="2.5" stroke-linecap="round" />
  <circle cx="32" cy="30" r="2.8" fill="#ffe27a" />
  <path
    d="M24 41c0-3.3 2.7-6 6-6h4c3.3 0 6 2.7 6 6v1.8c0 .6-.5 1.2-1.2 1.2h-6.5l-4.5 4v-4h-2.6c-.7 0-1.2-.6-1.2-1.2V41Z"
    fill="url(#accent)"
  />
  <path d="M29 40.5h6M29 43.5h4" stroke="#08111f" stroke-width="1.8" stroke-linecap="round" />
</svg>